<svg version="1.1"
    xmlns="http://www.w3.org/2000/svg" viewBox="0 0 546.5388583932106 233.39705581144352" width="546.5388583932106" height="233.39705581144352">
    <!-- svg-source:excalidraw -->

    <defs>
        <style class="style-fonts">
      @font-face {
        font-family: "Virgil";
        src: url("https://excalidraw.com/Virgil.woff2");
      }
      @font-face {
        font-family: "Cascadia";
        src: url("https://excalidraw.com/Cascadia.woff2");
      }
        </style>
    </defs>
    <rect x="0" y="0" width="546.5388583932106" height="233.39705581144352" fill="#ffffff"></rect>
    <g stroke-linecap="round" transform="translate(10 10) rotate(0 81.86970897740935 40.934867950264874)">
        <path d="M20.47 0 M20.47 0 C66.75 -1.23, 113.75 1.05, 143.27 0 M20.47 0 C55.43 -1.69, 91.73 -0.48, 143.27 0 M143.27 0 C154.94 -0.07, 164.9 5.52, 163.74 20.47 M143.27 0 C155.67 -1.6, 163.28 4.99, 163.74 20.47 M163.74 20.47 C162.9 34.76, 164.67 50.72, 163.74 61.4 M163.74 20.47 C163.63 35.48, 162.97 51.12, 163.74 61.4 M163.74 61.4 C165.37 75.53, 156.65 80.8, 143.27 81.87 M163.74 61.4 C162.1 72.9, 154.89 81.76, 143.27 81.87 M143.27 81.87 C106.62 83.57, 69.19 83.39, 20.47 81.87 M143.27 81.87 C112.84 82.28, 83.46 82.47, 20.47 81.87 M20.47 81.87 C7.56 82.59, 0.84 75.23, 0 61.4 M20.47 81.87 C7.78 83.32, 0.53 74.97, 0 61.4 M0 61.4 C-1.49 52.53, -0.55 41.29, 0 20.47 M0 61.4 C-0.96 46.2, -1.13 32.53, 0 20.47 M0 20.47 C1.68 5.62, 7.26 1.09, 20.47 0 M0 20.47 C0.59 5.49, 6.04 -0.88, 20.47 0" stroke="#000000" stroke-width="1" fill="none"></path>
    </g>
    <g transform="translate(15.369708977409346 25.934867950264845) rotate(0 76.5 25)">
        <text x="76.5" y="18" font-family="Virgil, Segoe UI Emoji" font-size="20px" fill="#000000" text-anchor="middle" style="white-space: pre;" direction="ltr">API Controller </text>
        <text x="76.5" y="43" font-family="Virgil, Segoe UI Emoji" font-size="20px" fill="#000000" text-anchor="middle" style="white-space: pre;" direction="ltr">1</text>
    </g>
    <g stroke-linecap="round" transform="translate(17.217314426332678 141.52731991091377) rotate(0 81.86970897740935 40.934867950264874)">
        <path d="M20.47 0 M20.47 0 C51.13 -1.86, 86.86 0.22, 143.27 0 M20.47 0 C57.09 -1.12, 95.83 -0.77, 143.27 0 M143.27 0 C156.06 1.94, 162.18 6.09, 163.74 20.47 M143.27 0 C155.19 1.48, 162.53 5.98, 163.74 20.47 M163.74 20.47 C164.14 29.83, 165.34 38.12, 163.74 61.4 M163.74 20.47 C162.84 31.49, 163.76 44.44, 163.74 61.4 M163.74 61.4 C163.74 75.46, 156.31 81.18, 143.27 81.87 M163.74 61.4 C163.59 76.87, 155.48 80.33, 143.27 81.87 M143.27 81.87 C116.89 79.65, 88.78 79.85, 20.47 81.87 M143.27 81.87 C102.82 82.18, 64.35 82.93, 20.47 81.87 M20.47 81.87 C7.8 82.52, 0.17 75.93, 0 61.4 M20.47 81.87 C8.05 79.75, 0.74 76.3, 0 61.4 M0 61.4 C0.67 49.41, -0.13 31.98, 0 20.47 M0 61.4 C0.77 52.47, 0 41.29, 0 20.47 M0 20.47 C-0.27 5.37, 5.26 0.95, 20.47 0 M0 20.47 C-1.02 5.33, 4.86 0.8, 20.47 0" stroke="#000000" stroke-width="1" fill="none"></path>
    </g>
    <g transform="translate(22.587023403741796 157.46218786117868) rotate(0 76.5 25)">
        <text x="76.5" y="18" font-family="Virgil, Segoe UI Emoji" font-size="20px" fill="#000000" text-anchor="middle" style="white-space: pre;" direction="ltr">API Controller </text>
        <text x="76.5" y="43" font-family="Virgil, Segoe UI Emoji" font-size="20px" fill="#000000" text-anchor="middle" style="white-space: pre;" direction="ltr">2</text>
    </g>
    <g stroke-linecap="round" transform="translate(392.56111846746035 26.798624827561184) rotate(0 71.98886996287513 8.46930019928675)">
        <path d="M48.67 1.24 C59.24 0.75, 74.15 0.8, 85.99 0.85 C97.83 0.91, 110.54 0.79, 119.72 1.57 C128.89 2.35, 137.18 4.06, 141.01 5.53 C144.85 7.01, 145.13 9.09, 142.73 10.42 C140.32 11.76, 134.69 12.47, 126.58 13.54 C118.47 14.6, 105.66 16.25, 94.05 16.84 C82.44 17.42, 68.64 17.43, 56.92 17.06 C45.2 16.69, 32.75 15.56, 23.75 14.63 C14.74 13.7, 6.71 12.65, 2.91 11.5 C-0.89 10.36, -1.69 9.15, 0.96 7.76 C3.62 6.38, 10 4.56, 18.83 3.18 C27.66 1.8, 47.14 -0.15, 53.94 -0.54 C60.74 -0.93, 59.12 0.56, 59.63 0.83 M94.56 1.2 C105.5 1.38, 116.38 2.07, 124.36 2.9 C132.34 3.73, 140 4.94, 142.46 6.19 C144.93 7.44, 142.98 9.11, 139.15 10.41 C135.33 11.71, 128.05 13.09, 119.52 13.99 C111 14.9, 99.92 15.65, 88.02 15.86 C76.12 16.07, 59.85 15.74, 48.13 15.26 C36.41 14.78, 25.64 13.7, 17.68 12.97 C9.71 12.25, 2.6 11.91, 0.32 10.9 C-1.96 9.9, 0.23 8.21, 3.98 6.96 C7.73 5.7, 13.81 4.28, 22.82 3.35 C31.83 2.42, 46.25 1.82, 58.04 1.38 C69.83 0.94, 87.66 0.76, 93.55 0.72 C99.44 0.68, 93.56 0.96, 93.36 1.14" stroke="#000000" stroke-width="1" fill="none"></path>
    </g>
    <g stroke-linecap="round" transform="translate(392.56111846746035 125.60686689574305) rotate(0 71.98886996287513 8.46930019928675)">
        <path d="M96.14 1.02 C107.23 1.34, 119.25 2.5, 126.89 3.5 C134.52 4.49, 139.79 5.75, 141.94 6.99 C144.09 8.24, 143.83 9.7, 139.81 10.95 C135.78 12.19, 127 13.56, 117.81 14.45 C108.62 15.34, 96.18 16.04, 84.66 16.27 C73.14 16.51, 60.09 16.38, 48.69 15.85 C37.28 15.32, 24.22 14.22, 16.23 13.12 C8.24 12.02, 2.89 10.41, 0.74 9.23 C-1.4 8.06, -0.77 7.17, 3.38 6.09 C7.52 5.02, 16.46 3.63, 25.6 2.77 C34.74 1.91, 45.32 1.13, 58.23 0.93 C71.14 0.74, 94.88 1.5, 103.05 1.6 C111.23 1.7, 107.95 1.47, 107.28 1.52 M75.28 1.29 C86.53 1.65, 100.38 2.23, 110.72 2.6 C121.06 2.96, 131.82 2.3, 137.33 3.47 C142.84 4.64, 144.79 8.04, 143.77 9.62 C142.75 11.21, 137.76 11.97, 131.21 12.98 C124.65 13.99, 114.78 15.08, 104.44 15.68 C94.09 16.28, 81.14 16.35, 69.14 16.57 C57.13 16.8, 42.72 17.59, 32.43 17.05 C22.13 16.5, 12.61 14.83, 7.36 13.31 C2.12 11.8, 0.44 9.36, 0.95 7.95 C1.47 6.55, 3.88 6.25, 10.45 4.87 C17.02 3.49, 29.72 0.22, 40.39 -0.35 C51.06 -0.93, 68.76 1.17, 74.48 1.42 C80.19 1.67, 74.64 1.07, 74.68 1.14" stroke="#000000" stroke-width="1" fill="none"></path>
    </g>
    <g stroke-linecap="round">
        <g transform="translate(393.25683821971825 34.46535912117076) rotate(0 0.1855055258960192 48.80498455847484)">
            <path d="M1.03 -0.46 C1.15 16.18, 0.3 82.89, -0.23 99.36 M0.1 -1.75 C0.24 14.6, -0.69 80.82, -0.67 97.72" stroke="#000000" stroke-width="1" fill="none"></path>
        </g>
    </g>
    <mask></mask>
    <g stroke-linecap="round">
        <g transform="translate(534.1033315476886 35.33866369238956) rotate(0 -0.22537804570811204 49.330910102611966)">
            <path d="M-0.37 0.61 C-0.78 16.77, -1.75 81.15, -2.09 97.65 M1.64 -0.11 C1.57 16.12, 0.45 82.44, 0.16 98.77" stroke="#000000" stroke-width="1" fill="none"></path>
        </g>
    </g>
    <mask></mask>
    <g transform="translate(413.2713294077398 73.80529622741687) rotate(0 51.500000000000114 12.5)">
        <text x="0" y="18" font-family="Virgil, Segoe UI Emoji" font-size="20px" fill="#000000" text-anchor="start" style="white-space: pre;" direction="ltr">Repository</text>
    </g>
    <g stroke-linecap="round">
        <g transform="translate(178.4012000894238 53.733860297096896) rotate(0 109.98305976085578 10.102195093595157)">
            <path d="M0.25 0.38 C36.97 3.69, 184.16 17.47, 221.04 20.68 M-1.08 -0.47 C35.47 2.46, 183.34 15.52, 220.41 19.09" stroke="#000000" stroke-width="1" fill="none"></path>
        </g>
        <g transform="translate(178.4012000894238 53.733860297096896) rotate(0 109.98305976085578 10.102195093595157)">
            <path d="M192.03 27.74 C203.51 25.76, 212.21 22.42, 219.33 17.58 M190.61 26.34 C200.16 23.64, 208.96 23.12, 220.65 19.13" stroke="#000000" stroke-width="1" fill="none"></path>
        </g>
        <g transform="translate(178.4012000894238 53.733860297096896) rotate(0 109.98305976085578 10.102195093595157)">
            <path d="M193.9 7.3 C204.83 12.69, 212.87 16.72, 219.33 17.58 M192.48 5.9 C201.61 9.07, 209.87 14.43, 220.65 19.13" stroke="#000000" stroke-width="1" fill="none"></path>
        </g>
    </g>
    <mask></mask>
    <g stroke-linecap="round">
        <g transform="translate(181.95673238115137 177.37040160638696) rotate(0 109.52568491458453 -37.15766375100594)">
            <path d="M-1.08 -1.09 C35.68 -13.78, 183.36 -63.07, 220.13 -75.27 M0.56 0.96 C37.17 -11.7, 182.17 -61.94, 219.08 -74.27" stroke="#000000" stroke-width="1" fill="none"></path>
        </g>
        <g transform="translate(181.95673238115137 177.37040160638696) rotate(0 109.52568491458453 -37.15766375100594)">
            <path d="M193.9 -55.78 C200.1 -61.55, 207.91 -65.93, 220.51 -74.12 M195.53 -55.12 C202.44 -60.15, 208.65 -65.16, 219.63 -73.47" stroke="#000000" stroke-width="1" fill="none"></path>
        </g>
        <g transform="translate(181.95673238115137 177.37040160638696) rotate(0 109.52568491458453 -37.15766375100594)">
            <path d="M187.28 -75.2 C195.39 -75.73, 204.97 -74.92, 220.51 -74.12 M188.9 -74.54 C197.79 -74.25, 205.81 -73.93, 219.63 -73.47" stroke="#000000" stroke-width="1" fill="none"></path>
        </g>
    </g>
    <mask></mask>
</svg>